<?xml version="1.0" encoding="UTF-8"?><svg id="b" xmlns="http://www.w3.org/2000/svg" width="261.157" height="301.447" viewBox="0 0 261.157 301.447"><defs><style>.d{fill:#74c66d;}.e{fill:#f8b8b4;}.f{fill:#ffe16c;}.g{fill:#fce0cd;}.h{fill:#efc0a0;}.i{fill:#645d5c;}</style></defs><g id="c"><path class="i" d="M66.845,78.756c0,19.861-1.629,34.183-3.909,42.328-1.55,5.572-2.876,14.851-2.932,20.512-.067,8.223,7.818,17.142,19.939,16.85l94.443-2.266c13.234,4.746,24.745-7.247,24.661-16.509-.051-5.665-.971-10.034-2.86-15.502-2.355-6.817-6.917-20.667-7.246-45.413.655-7.489-.025-18.308-.322-22.466-1.026-14.415-7.471-30.511-16.745-39.458-2.731-2.635-4.71-4.341-6.937-5.942l-9.906-5.734c-7.646-3.1-15.61-5.157-26.922-5.157-18.547,0-35.054,9.555-42.38,16.568-12.152,11.634-19.861,32.885-18.889,62.189"/><path class="g" d="M108.777,134.625c.001-.142.003-.289.005-.443-5.419-2.369-10.222-6.396-14.773-11.934-5.483-6.673-8.593-13.85-10.302-19.791-2.366.603-4.918-.292-6.608-1.698-3.812-3.172-5.382-7.58-6.339-10.461-1.352-4.069-1.413-10.636.638-14.192.687-1.191,2.281-3.219,6.008-3.336,1.689-.053,3.657.48,5.123,1.892,10.503-8.461,21.327-17.077,31.775-27.212-.361,3.016-1.626,8.172-1.831,11.292-.083,1.254.188,1.688,1.152,2.139.744.267,1.833.12,2.571-.117,12.551-4.03,22.975-11.736,30.741-22.137.084.241.168.483.168.483,2.238,6.43,4.571,11.473,11.317,21.118,5.511,7.88,11.779,12.648,17.041,14.185,1.342-.946,2.948-1.297,4.358-1.241,3.727.147,5.304,2.187,5.982,3.383,2.023,3.572,1.912,10.139.529,14.196-.979,2.874-2.583,7.269-6.419,10.411-1.747,1.43-4.399,2.315-6.812,1.592-1.726,5.882-4.823,12.931-10.215,19.493-4.345,5.288-8.482,8.554-13.491,10.894.027,2.468-.036,3.263.107,5.645.015.252.033.521.053.812.098,1.26.196,2.618.663,3.845.619,1.608,1.466,3.009,2.813,4.106,1.619,1.304,12.467,5.924,14.249,6.728l1.472.664c-9.635,6.394-25.254,9.985-38.529,10.284-13.315-.303-29.055-3.917-38.663-10.364,0,0-.5-.336-1-.671l1.313-.539c2.303-.945,11.244-4.484,13.265-6.103,1.347-1.097,2.194-2.498,2.813-4.106.467-1.228.565-2.585.663-3.845.178-2.412.149-3.342.165-4.975Z"/><path class="e" d="M248.313,240.223c-2.111,7.944-5.803,20.796-12.167,27.25-3.912,3.967-9.47,7.375-15.042,7.375-10.079,0-19.834-6.561-25.512-12.999-.324-.682-.649-1.361-.649-1.361,0,0-1.154-2.412-2.718-5.684-.65,14.501-1.51,34.31-2.002,46.643h-120.549c-.303-7.594-.745-18.021-1.19-28.297-4.416,10.125-16.766,13.312-25.979,11.962-9.7-1.421-15.381-8.263-19.182-15.784-5.935-11.74-11.898-41.444-16.787-62.74h0c-.394-2.141.625-4.294,2.531-5.346l27.711-15.295,12.173-.967c3.963-7.529,9.283-14.124,16.7-19.016,6.106-4.027,17.888-9.164,24.79-11.891,9.464,6.945,25.933,10.84,39.779,11.155,13.435-.302,29.268-3.976,38.874-10.514.341.132.591.23.591.23,10.452,3.716,21.078,8.707,27.205,12.362,7.659,4.581,13.291,9.795,18.048,16.463,2.891,4.045,7.693,12.852,9.895,19.393l21.943,30.533c1.356,1.888,1.909,4.236,1.535,6.53h0Z"/><path class="h" d="M119.977,113.071c2.82,1.489,5.857,2.116,9.045,2.095,3.258-.021,6.532-.669,9.139-2.7.995-.775.875-2.591,0-3.394-1.055-.969-2.332-.827-3.394,0,.731-.57.176-.143-.012-.022-.181.116-.367.223-.558.323-.098.052-.2.098-.299.149-.342.176-.053-.1.108-.036-.107-.043-.645.239-.769.279-.701.225-1.424.382-2.152.491.359-.054-.033,0-.189.016-.211.021-.423.039-.634.052-.509.033-1.02.046-1.53.043-.457-.003-.914-.018-1.37-.049-.209-.014-.419-.031-.627-.052-.037-.004-.792-.119-.288-.031-.679-.119-1.349-.249-2.01-.446-.282-.084-.556-.185-.834-.28-.609-.208.367.188-.182-.071-.345-.163-.685-.332-1.022-.51-1.11-.586-2.66-.318-3.284.861-.586,1.109-.324,2.658.861,3.284h0Z"/><path class="h" d="M127.776,91.796c.393,1.499.77,3.021.996,4.556l-.086-.638c.027.21.038.418.017.629l.086-.638c-.015.098-.036.189-.069.283l.242-.573c-.029.066-.06.122-.1.182l.375-.486c-.047.057-.091.101-.149.147l.486-.375c-.115.074-.237.134-.361.191l.573-.242c-.199.083-.396.144-.608.177l.638-.086c-.192.023-.379.021-.571-.001l.638.086c-.215-.03-.426-.082-.642-.111-.319-.1-.638-.114-.957-.043-.319.014-.617.109-.892.285-.498.291-.973.862-1.103,1.434-.14.614-.11,1.304.242,1.849.312.484.835,1.022,1.434,1.103.496.067.977.193,1.481.215.776.034,1.497-.204,2.189-.522.857-.393,1.527-1.167,1.755-2.091.193-.782.111-1.461-.022-2.245-.248-1.468-.587-2.922-.965-4.362-.318-1.214-1.729-2.072-2.952-1.676-1.25.404-2.018,1.651-1.676,2.952h0Z"/><path class="i" d="M103.75,78.877c-.761,2.472-.265,8.16,4.419,8.644,6.191-.037,6.52-6.913,4.436-10.146-1.706-2.647-6.723-3.748-8.855,1.502Z"/><path class="i" d="M153.323,78.877c.761,2.472.265,8.16-4.419,8.643-6.191-.037-6.52-6.913-4.436-10.146,1.706-2.647,6.723-3.748,8.855,1.503Z"/><path class="f" d="M217.389,145.027c-5.373-8.855-11.242-18.358-17.104-27.644-2.551-4.042-8.655-3.296-10.161,1.24-5.467,16.466-14.283,43.019-18.811,56.656-1.391,4.189-.835,8.775,1.511,12.514,6.596,10.511,12.901,20.527,19.885,31.952.577.943,1.453,1.61,2.442,1.938l24.782-74.64c-1.031-.335-1.945-1.028-2.545-2.016Z"/><path class="d" d="M253.488,134.895c-10.041,3.797-20.299,7.884-30.314,12.022-1.066.44-2.212.462-3.241.127l-24.782,74.64c.989.328,2.09.318,3.116-.093,12.424-4.977,23.464-9.231,35.031-13.708,4.127-1.597,7.325-4.954,8.719-9.154l18.84-56.744c1.501-4.522-2.913-8.776-7.37-7.091Z"/><path class="g" d="M245.946,197.372c-.428-.438-.882-.853-1.361-1.244-.048-.039-.096-.078-.144-.117-3.957-3.104-7.787-5.76-13.274-8.866-3.077-1.742-6.514-.725-7.922.941-1.671,1.978-2.374,5.295.431,7.591-3.445-1.272-6.298-.459-8.118,1.704-1.927,2.29-1.376,5.809,1.288,7.964l1.892,1.531c-.772-.289-1.543-.579-1.543-.579-2.647-.993-5.55.004-6.735,2.118-1.577,2.812-.885,5.559,1.654,7.741l1.823,1.566c-.661-.206-1.323-.411-1.323-.411-2.87-.892-4.777-.435-6.304,1.137-1.268,1.306-1.61,3.881-.498,5.732,1.288,2.143,2.535,3.429,3.987,5.069-1.935,3.667-3.009,9.628-2.686,12.963.246,1.84,2.186,4.496,3.826,5.503,4.253,2.599,10.17,2.779,15.989,1.244,4.182-1.103,8.691-3.845,10.427-7.964,3.503-8.313,7.164-14.494,11.619-22.665,3.659-6.711,2.271-15.542-3.029-20.958Z"/><path class="h" d="M236.708,203.076c-2.242-1.818-4.501-3.614-6.757-5.415-1.044-.834-2.089-1.668-3.13-2.506-.841-.677-2.01-1.36-2.467-2.374-.612-1.36.345-3.327,1.842-3.869,1.112-.402,2.317-.375,3.427.129,1.635.742,3.193,1.827,4.715,2.777,2.904,1.813,5.709,3.781,8.405,5.89,1.02.798,2.399.995,3.394,0,.83-.83,1.027-2.591,0-3.394-2.924-2.288-5.922-4.468-9.066-6.446-3.542-2.229-7.185-4.817-11.578-3.75-3.45.838-5.866,3.864-6.097,7.381-.122,1.867.57,3.65,1.765,5.061.904,1.067,2.148,1.896,3.235,2.767,2.971,2.382,5.959,4.744,8.917,7.143,1.006.816,2.411.984,3.394,0,.843-.843,1.012-2.574,0-3.394h0Z"/><path class="h" d="M224.314,193.363c-3.277-1.156-6.845-.845-9.556,1.434-2.39,2.009-3.395,5.355-2.311,8.323,1.077,2.949,3.552,4.607,5.881,6.517,2.603,2.134,5.21,4.263,7.842,6.361,1.013.807,2.405.989,3.394,0,.837-.837,1.019-2.582,0-3.394-2.272-1.811-4.527-3.644-6.775-5.486-.898-.736-1.795-1.473-2.694-2.207-.832-.68-1.938-1.446-2.514-2.202-.571-.749-.71-1.54-.769-2.251-.038-.462-.098.181.02-.301.056-.229.109-.46.194-.681-.14.363.246-.406.305-.49-.215.305.247-.267.265-.285.174-.178.357-.357.555-.509-.243.187.466-.263.544-.311.212-.128.563-.232,1.075-.352.293-.053.339-.063.136-.028.134-.013.268-.02.402-.023.323-.01.651-.007.972.032.319.039,1.251.304,1.757.482,1.222.431,2.626-.489,2.952-1.676.364-1.326-.449-2.52-1.676-2.952h0Z"/><path class="h" d="M217.833,203.983c-2.747-.966-5.925-.404-8.103,1.549-2.126,1.907-3.013,5.239-2.215,7.963.771,2.629,2.805,4.292,4.817,5.976,2.078,1.74,4.165,3.468,6.221,5.234.983.844,2.429.965,3.394,0,.864-.864.988-2.546,0-3.394-1.735-1.491-3.493-2.955-5.249-4.421-.752-.628-1.505-1.256-2.253-1.89-.355-.301-.717-.597-1.052-.92-.194-.188-.38-.384-.557-.589l-.167-.201c.122.141.099.097-.069-.132-.122-.213-.248-.416-.358-.637.179.359-.087-.263-.099-.302-.033-.111-.155-.692-.095-.264-.032-.231-.013-.461-.028-.691.025-.289.018-.31-.02-.063.018-.119.041-.237.07-.354.055-.242.123-.48.209-.714.056-.151.057-.159.005-.026.057-.123.118-.243.183-.361.054-.1.49-.698.193-.353.144-.167.301-.32.464-.468-.295.268.129-.086.232-.148.028-.017.661-.335.238-.157.21-.088.437-.155.657-.212.102-.026.702-.114.286-.074.238-.023.478-.029.717-.022.162.005.324.016.485.034-.191-.021-.201-.016-.029.015.289.068.568.15.849.249,1.223.43,2.626-.488,2.952-1.676.364-1.325-.449-2.521-1.676-2.952h0Z"/><path class="g" d="M7.517,187.174c-1.325-4.214-3.621-10.098-5.303-12.892-1.952-3.241-2.483-6.603-2.095-9.512.196-1.471,1.29-4.636,2.021-5.558,3.86-4.866,7.201-9.121,11.126-13.182.838-.867,2.055-1.912,2.989-2.673,1.682-1.37,3.913-2.045,6.073-1.837,1.669.161,4.377,1.879,4.96,3.802l3.857-.365c.777-.595,1.467-1.32,2.295-1.847,2.306-1.468,5.407-1.172,7.825.102,2.418,1.274,4.281,3.381,5.981,5.522,1.28,1.612,2.104,3.814,2.266,5.935.124,1.626-.655,2.797-1.608,3.611-.711.607-2.027,1.335-3.699,1.469.421.852,1.084,2.193,1.084,2.193.717.263,1.711,1.075,2.306,1.614,1.645,1.582,2.005,4.567,1.092,6.598-.272.604-1.085,2.327-1.913,3.974-.935,1.858-3.149,2.673-5.062,1.856h0c-1.436,2.519-2.271,5.305-1.681,7.583,3.075,12.943,1.862,19.128-2.548,22.265-3.599,2.56-8.828,4.505-11.705,4.812-1.162.124-6.49.494-7.499-.096-1.984-1.16-3.96-1.83-5.312-3.835-1.112-1.648-1.678-3.645-2.013-5.585-.407-2.359-1.785-8.232-2.881-12.077-.156-.57-.343-1.202-.555-1.877Z"/><path class="h" d="M28.163,150.599c-.149.117-.398.291-.092.085.075-.051.152-.1.23-.147.095-.058.192-.112.291-.164.086-.045.457-.208.068-.044-.366.154-.07.033.012.004.099-.035.2-.067.301-.095.2-.055.402-.095.607-.126l-.638.086c.405-.051.804-.054,1.21-.009l-.638-.086c.28.038.555.095.824.179.087.027.596.228.168.048s.074.048.154.092c.109.06.215.123.319.19.07.045.139.092.206.141-.317-.251-.379-.299-.186-.144.205.184.407.365.592.571.136.152.366.555-.021-.051.066.104.144.201.211.305.156.241.284.493.411.749.199.402-.187-.525-.059-.128.049.151.103.3.145.453.073.263.124.531.162.801l-.086-.638c.053.45.055.896-.002,1.346l.086-.638c-.016.108-.035.214-.057.321-.248,1.227.353,2.651,1.676,2.952,1.195.272,2.686-.36,2.952-1.676.621-3.069-.586-6.198-3.057-8.107-1.253-.968-2.811-1.528-4.403-1.517-1.821.012-3.377.746-4.779,1.851-.45.354-.703,1.154-.703,1.697,0,.589.261,1.292.703,1.697.457.42,1.058.732,1.697.703.677-.03,1.169-.287,1.697-.703h0Z"/><path class="h" d="M28.657,163.913c1.754-1.719,3.858-3.609,5.623-4.906.512-.376,1.032-.741,1.553-1.103.429-.298,1.061-.587,1.418-.962.146-.154-.035.011-.128.039.126-.038.255-.072.38-.111.174-.055.36.028-.039,0,.101.007.207-.007.309-.006.075.001.51.042.202,0-.288-.039.06.018.099.028.137.038.276.08.415.115.415.106-.092-.071.13.05.225.123.453.242.657.399-.41-.315.322.362.071.079-.185-.208.176.309.235.415.215.389.047.103.012.006.061.17.117.341.164.515.049.179.112.768.09.309.013.271.022.53.004.801.005-.071.116-.377.006-.188-.031.053-.169.462-.074.245.091-.206-.092.16-.091.159-.108.186-.215.37-.332.549-.484.742-.927,1.314-1.602,2.066-.547.608-1.134,1.182-1.717,1.755-1.467,1.438-2.968,2.84-4.468,4.243-.919.86-.934,2.537,0,3.394.984.904,2.414.917,3.394,0,1.545-1.446,3.093-2.89,4.602-4.375,1.622-1.597,3.361-3.387,4.383-5.432,1.488-2.976.466-6.791-2.254-8.687-1.195-.833-2.771-1.325-4.233-1.242-1.607.092-2.773.801-4.054,1.689-2.895,2.008-5.63,4.293-8.148,6.759-.898.88-.948,2.523,0,3.394.966.887,2.436.939,3.394,0h0Z"/></g></svg>